<?xml version="1.0" standalone="no"?>
<!DOCTYPE svg PUBLIC "-//W3C//DTD SVG 20010904//EN"
 "http://www.w3.org/TR/2001/REC-SVG-20010904/DTD/svg10.dtd">
<svg version="1.0" xmlns="http://www.w3.org/2000/svg"
 width="281.000000pt" height="281.000000pt" viewBox="0 0 281.000000 281.000000"
 preserveAspectRatio="xMidYMid meet">
<metadata>
Created by potrace 1.11, written by Peter Selinger 2001-2013
</metadata>
<g transform="translate(0.000000,281.000000) scale(0.100000,-0.100000)"
fill="#000000" stroke="none">
<path d="M2355 2768 c-23 -58 -28 -77 -29 -118 -1 -19 -4 -39 -7 -45 -3 -5 -7
-28 -8 -50 -4 -50 -7 -55 -36 -55 -15 0 -26 -7 -30 -21 -7 -20 -7 -20 -28 -2
-26 24 -66 27 -74 7 -3 -8 -11 -14 -17 -14 -7 0 -19 -26 -27 -57 -12 -45 -21
-61 -42 -71 -15 -7 -27 -17 -27 -23 0 -5 -6 -9 -14 -9 -8 0 -17 -7 -20 -15 -4
-11 -19 -16 -48 -16 -80 1 -98 -1 -98 -10 0 -12 -37 -11 -75 2 -25 9 -45 9
-91 -3 -58 -14 -59 -15 -56 -47 1 -18 11 -45 22 -58 11 -14 20 -30 20 -36 0
-5 16 -27 35 -48 l35 -39 -27 -55 c-21 -42 -32 -54 -48 -53 -19 2 -50 25 -50
38 0 9 -34 10 -40 0 -9 -15 -108 -12 -130 4 -11 7 -39 14 -63 14 -23 0 -49 7
-57 15 -8 9 -24 13 -35 10 -11 -3 -20 0 -20 6 0 6 5 11 10 11 18 0 11 15 -12
25 -12 6 -22 20 -23 32 -1 20 -40 62 -57 63 -4 0 -19 -11 -34 -25 -19 -18 -31
-22 -38 -15 -15 15 -29 12 -22 -5 4 -11 -3 -19 -19 -25 -23 -9 -30 -21 -26
-43 1 -5 -6 -24 -15 -43 -9 -19 -14 -43 -11 -54 3 -13 0 -20 -8 -20 -8 0 -23
-12 -34 -27 -12 -16 -24 -32 -29 -38 -4 -5 -11 -18 -15 -28 -4 -10 -20 -25
-36 -35 -17 -9 -32 -26 -35 -37 -3 -11 -19 -36 -36 -55 -24 -27 -38 -34 -69
-35 -21 -1 -51 -9 -65 -19 -23 -15 -25 -20 -14 -33 11 -14 10 -16 -15 -9 -20
5 -27 3 -27 -9 0 -8 -6 -15 -14 -15 -7 0 -21 -11 -31 -24 -10 -14 -25 -22 -35
-19 -9 2 -40 -9 -69 -26 -28 -17 -56 -31 -62 -31 -6 0 -7 -9 -4 -21 6 -18 3
-20 -24 -18 -24 3 -38 -5 -73 -38 -24 -23 -71 -68 -105 -99 -47 -42 -60 -60
-54 -72 10 -18 3 -51 -15 -72 -9 -10 -10 -20 -4 -30 5 -8 10 -10 10 -5 0 6 7
2 14 -8 8 -10 17 -18 20 -18 33 4 44 -3 60 -39 9 -22 15 -44 11 -50 -3 -5 -4
-14 0 -20 8 -13 55 30 55 52 0 25 16 23 46 -7 14 -14 29 -23 33 -21 4 3 25
-10 46 -29 41 -38 50 -43 41 -20 -7 20 8 19 25 -1 12 -15 31 -15 74 1 11 4 16
3 10 -2 -42 -35 -54 -83 -21 -83 10 0 12 -22 7 -61 -1 -3 -12 -19 -26 -35 -14
-16 -25 -35 -25 -42 0 -7 -12 -33 -26 -58 -29 -49 -39 -110 -22 -131 13 -16
25 -17 31 0 2 6 3 4 2 -5 -3 -17 8 -23 30 -18 6 1 15 3 20 4 6 1 15 5 22 9 7
4 21 2 33 -5 24 -15 27 -33 3 -20 -10 6 -35 5 -68 -3 -28 -6 -61 -11 -73 -10
-17 1 -21 -2 -16 -17 5 -18 -3 -22 -39 -18 -16 1 -18 -3 -12 -28 4 -20 2 -33
-7 -39 -20 -12 -41 -60 -41 -91 0 -21 -9 -34 -34 -50 -18 -12 -38 -22 -45 -22
-8 0 -9 -3 -2 -10 13 -13 56 -19 74 -10 9 5 23 2 34 -6 14 -10 35 -12 73 -8
35 5 53 3 53 -4 0 -6 -4 -14 -10 -17 -5 -3 -10 -2 -10 3 0 6 -9 8 -20 5 -23
-6 -25 -14 -8 -31 10 -10 8 -12 -7 -11 -37 4 -53 -1 -59 -18 -4 -10 -4 -14 0
-11 4 4 16 1 28 -7 24 -18 58 -19 73 -4 6 6 16 8 23 4 8 -5 6 -13 -7 -28 -17
-19 -17 -20 -1 -14 10 4 18 2 18 -3 0 -18 19 -10 25 9 4 12 12 18 21 14 9 -3
12 0 9 9 -4 9 0 15 8 15 8 0 15 -10 15 -23 0 -13 -4 -21 -8 -19 -14 8 -41 -7
-36 -20 3 -8 -4 -10 -20 -7 -15 3 -24 0 -24 -8 0 -9 -4 -9 -13 -2 -10 8 -13 6
-13 -9 0 -23 9 -24 30 -4 20 20 25 19 19 -5 -3 -11 0 -20 6 -20 6 0 11 5 11
10 0 6 6 10 14 10 8 0 22 7 30 16 10 9 24 13 36 9 21 -7 24 1 22 53 -1 12 3
20 8 17 4 -3 15 -2 24 1 13 5 14 9 4 21 -7 8 -23 19 -36 24 -38 15 -19 22 24
9 28 -7 47 -22 67 -51 23 -33 32 -40 51 -35 19 5 26 0 36 -24 15 -37 41 -41
34 -5 -4 22 -1 26 21 25 3 0 19 7 35 15 28 14 31 14 50 -5 48 -48 107 -44 97
7 -3 15 4 30 22 47 14 14 40 43 56 66 73 101 109 121 200 113 22 -3 45 -4 50
-4 12 1 96 2 175 2 85 0 148 51 142 116 -1 15 6 32 20 43 21 17 21 18 5 44
-11 16 -27 26 -41 26 -14 0 -30 10 -40 25 -9 14 -22 25 -29 25 -13 0 -81 71
-103 110 -15 24 -71 50 -109 50 -8 0 -15 4 -15 10 0 5 -6 7 -13 4 -8 -3 -20 2
-27 10 -15 20 -5 66 15 66 8 0 15 5 15 10 0 6 -8 10 -17 10 -16 0 -16 1 0 18
16 15 19 15 27 2 6 -8 8 -23 6 -32 -2 -10 -1 -20 4 -23 9 -6 22 23 15 34 -12
21 -15 78 -4 103 10 25 9 31 -7 43 -17 13 -18 16 -4 41 16 29 64 62 93 63 9 1
17 6 17 11 0 6 7 10 15 10 8 0 15 4 15 9 0 5 13 23 29 40 24 25 35 30 55 25
14 -3 26 -10 26 -15 0 -5 7 -9 15 -9 8 0 15 9 15 20 0 21 15 27 25 9 5 -7 13
-5 24 6 27 26 91 65 107 65 19 0 30 28 15 43 -18 18 -13 26 29 37 22 6 55 24
74 40 18 17 41 30 49 30 20 0 55 50 63 90 5 21 12 30 23 28 9 -1 29 10 45 25
16 15 37 27 46 27 10 0 23 6 29 14 7 8 24 13 41 11 26 -4 30 -1 36 30 3 18 3
38 0 44 -13 20 -7 117 9 165 l17 49 -31 24 c-27 22 -30 29 -26 65 6 46 44 118
63 118 15 0 26 26 31 72 1 4 7 5 14 3 7 -3 19 13 30 39 19 47 47 80 47 56 0
-10 3 -10 15 0 8 7 15 20 15 30 0 9 9 25 20 35 21 19 28 7 8 -13 -8 -8 -8 -12
-1 -12 14 0 48 50 48 70 0 8 5 15 12 15 6 0 14 3 18 6 10 11 45 -2 45 -17 0
-15 10 -17 34 -8 9 3 13 10 10 15 -3 5 -7 19 -9 31 -3 13 -10 28 -18 33 -16
13 -37 61 -37 85 0 25 -30 27 -31 3 0 -14 -2 -15 -6 -3 -4 8 -17 23 -30 33
-34 27 -46 56 -44 104 1 42 -4 48 -36 44 -7 -1 -13 8 -13 20 0 18 -4 20 -27
16 -16 -3 -32 1 -40 9 -22 22 -30 17 -48 -28z m-1950 -2488 c-3 -5 -11 -10
-16 -10 -6 0 -7 5 -4 10 3 6 11 10 16 10 6 0 7 -4 4 -10z m415 -181 c0 -6 -4
-7 -10 -4 -5 3 -10 11 -10 16 0 6 5 7 10 4 6 -3 10 -11 10 -16z"/>
<path d="M105 1100 c-3 -5 -1 -10 4 -10 6 0 11 5 11 10 0 6 -2 10 -4 10 -3 0
-8 -4 -11 -10z"/>
<path d="M356 968 c-7 -18 -12 -35 -10 -37 8 -9 44 33 44 51 0 29 -19 21 -34
-14z"/>
<path d="M264 964 c-18 -15 -18 -15 4 -9 13 4 22 2 22 -4 0 -6 4 -11 9 -11 5
0 7 9 4 20 -6 24 -13 25 -39 4z"/>
<path d="M257 920 c-3 -11 -2 -20 3 -20 12 0 21 28 11 35 -5 2 -11 -4 -14 -15z"/>
<path d="M1465 800 c-3 -5 -1 -10 4 -10 6 0 11 5 11 10 0 6 -2 10 -4 10 -3 0
-8 -4 -11 -10z"/>
<path d="M410 494 c0 -8 5 -12 10 -9 6 3 10 10 10 16 0 5 -4 9 -10 9 -5 0 -10
-7 -10 -16z"/>
<path d="M335 440 c-3 -5 -5 -10 -3 -11 37 -9 47 -7 42 6 -7 17 -30 20 -39 5z"/>
<path d="M427 83 c-4 -3 -7 -11 -7 -17 0 -6 5 -5 12 2 6 6 9 14 7 17 -3 3 -9
2 -12 -2z"/>
<path d="M475 69 c-11 -17 1 -21 15 -4 8 9 8 15 2 15 -6 0 -14 -5 -17 -11z"/>
<path d="M770 49 c0 -5 5 -7 10 -4 6 3 10 8 10 11 0 2 -4 4 -10 4 -5 0 -10 -5
-10 -11z"/>
</g>
</svg>
